<?xml version="1.0" encoding="UTF-8" standalone="no"?>
<!DOCTYPE svg PUBLIC "-//W3C//DTD SVG 1.1//EN"
 "http://www.w3.org/Graphics/SVG/1.1/DTD/svg11.dtd">
<!-- Generated by graphviz version 8.0.4 (20230422.2207)
 -->
<!-- Title: G Pages: 1 -->
<svg width="439pt" height="317pt"
 viewBox="0.00 0.00 439.00 316.80" xmlns="http://www.w3.org/2000/svg" xmlns:xlink="http://www.w3.org/1999/xlink">
<g id="graph0" class="graph" transform="scale(1 1) rotate(0) translate(4 312.8)">
<title>G</title>
<polygon fill="white" stroke="none" points="-4,4 -4,-312.8 435,-312.8 435,4 -4,4"/>
<g id="clust1" class="cluster">
<title>cluster_0</title>
<polygon fill="none" stroke="blue" points="8,-8 8,-300.8 158,-300.8 158,-8 8,-8"/>
<text text-anchor="middle" x="83" y="-283.5" font-family="Times,serif" font-size="14.00">Scraping</text>
</g>
<g id="clust2" class="cluster">
<title>cluster_1</title>
<polygon fill="none" stroke="green" points="166,-80 166,-300.8 317,-300.8 317,-80 166,-80"/>
<text text-anchor="middle" x="241.5" y="-283.5" font-family="Times,serif" font-size="14.00">Morphological Analysis</text>
</g>
<g id="clust3" class="cluster">
<title>cluster_2</title>
<polygon fill="none" stroke="red" points="325,-152 325,-300.8 423,-300.8 423,-152 325,-152"/>
<text text-anchor="middle" x="374" y="-283.5" font-family="Times,serif" font-size="14.00">Expert System</text>
</g>
<!-- Install -->
<g id="node1" class="node">
<title>Install</title>
<polygon fill="none" stroke="black" points="129.5,-268 36.5,-268 36.5,-232 129.5,-232 129.5,-268"/>
<text text-anchor="middle" x="83" y="-245.1" font-family="Times,serif" font-size="14.00">Install pandas</text>
</g>
<!-- ReadCSV -->
<g id="node2" class="node">
<title>ReadCSV</title>
<polygon fill="none" stroke="black" points="120.5,-196 45.5,-196 45.5,-160 120.5,-160 120.5,-196"/>
<text text-anchor="middle" x="83" y="-173.1" font-family="Times,serif" font-size="14.00">Read CSV</text>
</g>
<!-- Install&#45;&gt;ReadCSV -->
<g id="edge1" class="edge">
<title>Install&#45;&gt;ReadCSV</title>
<path fill="none" stroke="black" d="M83,-231.7C83,-224.24 83,-215.32 83,-206.97"/>
<polygon fill="black" stroke="black" points="86.5,-207.1 83,-197.1 79.5,-207.1 86.5,-207.1"/>
</g>
<!-- GetURLs -->
<g id="node3" class="node">
<title>GetURLs</title>
<polygon fill="none" stroke="black" points="150,-124 16,-124 16,-88 150,-88 150,-124"/>
<text text-anchor="middle" x="83" y="-101.1" font-family="Times,serif" font-size="14.00">Get URLs from CSV</text>
</g>
<!-- ReadCSV&#45;&gt;GetURLs -->
<g id="edge2" class="edge">
<title>ReadCSV&#45;&gt;GetURLs</title>
<path fill="none" stroke="black" d="M83,-159.7C83,-152.24 83,-143.32 83,-134.97"/>
<polygon fill="black" stroke="black" points="86.5,-135.1 83,-125.1 79.5,-135.1 86.5,-135.1"/>
</g>
<!-- Scrape -->
<g id="node4" class="node">
<title>Scrape</title>
<polygon fill="none" stroke="black" points="127.5,-52 38.5,-52 38.5,-16 127.5,-16 127.5,-52"/>
<text text-anchor="middle" x="83" y="-29.1" font-family="Times,serif" font-size="14.00">Scrape News</text>
</g>
<!-- GetURLs&#45;&gt;Scrape -->
<g id="edge3" class="edge">
<title>GetURLs&#45;&gt;Scrape</title>
<path fill="none" stroke="black" d="M83,-87.7C83,-80.24 83,-71.32 83,-62.97"/>
<polygon fill="black" stroke="black" points="86.5,-63.1 83,-53.1 79.5,-63.1 86.5,-63.1"/>
</g>
<!-- InstallLib -->
<g id="node5" class="node">
<title>InstallLib</title>
<polygon fill="none" stroke="black" points="293,-268 189,-268 189,-232 293,-232 293,-268"/>
<text text-anchor="middle" x="241" y="-245.1" font-family="Times,serif" font-size="14.00">Install Libraries</text>
</g>
<!-- ExtractNouns -->
<g id="node6" class="node">
<title>ExtractNouns</title>
<polygon fill="none" stroke="black" points="289,-196 193,-196 193,-160 289,-160 289,-196"/>
<text text-anchor="middle" x="241" y="-173.1" font-family="Times,serif" font-size="14.00">Extract Nouns</text>
</g>
<!-- InstallLib&#45;&gt;ExtractNouns -->
<g id="edge4" class="edge">
<title>InstallLib&#45;&gt;ExtractNouns</title>
<path fill="none" stroke="black" d="M241,-231.7C241,-224.24 241,-215.32 241,-206.97"/>
<polygon fill="black" stroke="black" points="244.5,-207.1 241,-197.1 237.5,-207.1 244.5,-207.1"/>
</g>
<!-- CreatePRule -->
<g id="node7" class="node">
<title>CreatePRule</title>
<polygon fill="none" stroke="black" points="286,-124 196,-124 196,-88 286,-88 286,-124"/>
<text text-anchor="middle" x="241" y="-101.1" font-family="Times,serif" font-size="14.00">Create PRule</text>
</g>
<!-- ExtractNouns&#45;&gt;CreatePRule -->
<g id="edge5" class="edge">
<title>ExtractNouns&#45;&gt;CreatePRule</title>
<path fill="none" stroke="black" d="M241,-159.7C241,-152.24 241,-143.32 241,-134.97"/>
<polygon fill="black" stroke="black" points="244.5,-135.1 241,-125.1 237.5,-135.1 244.5,-135.1"/>
</g>
<!-- Answer -->
<g id="node8" class="node">
<title>Answer</title>
<polygon fill="none" stroke="black" points="403.5,-268 344.5,-268 344.5,-232 403.5,-232 403.5,-268"/>
<text text-anchor="middle" x="374" y="-245.1" font-family="Times,serif" font-size="14.00">Answer</text>
</g>
<!-- RuleMatch -->
<g id="node9" class="node">
<title>RuleMatch</title>
<polygon fill="none" stroke="black" points="414.5,-196 333.5,-196 333.5,-160 414.5,-160 414.5,-196"/>
<text text-anchor="middle" x="374" y="-173.1" font-family="Times,serif" font-size="14.00">Rule Match</text>
</g>
<!-- Answer&#45;&gt;RuleMatch -->
<g id="edge6" class="edge">
<title>Answer&#45;&gt;RuleMatch</title>
<path fill="none" stroke="black" d="M374,-231.7C374,-224.24 374,-215.32 374,-206.97"/>
<polygon fill="black" stroke="black" points="377.5,-207.1 374,-197.1 370.5,-207.1 377.5,-207.1"/>
</g>
</g>
</svg>
